<?xml version="1.0" encoding="UTF-8"?><svg xmlns="http://www.w3.org/2000/svg" xmlns:xlink="http://www.w3.org/1999/xlink" contentScriptType="text/ecmascript" width="1125" zoomAndPan="magnify" contentStyleType="text/css" viewBox="0 0 1125 1124.99995" height="1124.99995" preserveAspectRatio="xMidYMid meet" version="1.0"><defs><clipPath id="clip-0"><path d="M 2 2 L 494.25 2 L 494.25 494.25 L 2 494.25 Z M 2 2 " clip-rule="nonzero"/></clipPath><clipPath id="clip-1">
<style>
  path {
    fill: #000000;
    stroke: #000000;
  }
  @media (prefers-color-scheme: dark) {
    path { fill: #ffffff; stroke: #ffffff; }
  }
</style>
<path d="M 630.410156 630.410156 L 1124.660156 630.410156 L 1124.660156 1124.660156 L 630.410156 1124.660156 Z M 630.410156 630.410156 " clip-rule="nonzero"/></clipPath></defs><g clip-path="url(#clip-0)"><path d="M 456.046875 497.855469 L 435.636719 477.210938 C 279.105469 319.460938 40.703125 79.660156 24.304688 65.765625 L 2.152344 46.984375 L 39.421875 2.558594 L 61.695312 21.164062 C 84.429688 40.238281 436.800781 395.808594 476.921875 436.277344 L 497.390625 456.917969 Z M 456.046875 497.855469 " fill-opacity="1" fill-rule="nonzero"/><path d="M 47.273438 497.449219 L 2.847656 460.117188 L 21.515625 437.90625 C 40.703125 415.167969 396.15625 62.796875 436.566406 22.675781 L 457.269531 2.210938 L 497.972656 43.550781 L 477.328125 63.960938 C 319.519531 220.378906 79.71875 458.953125 65.824219 475.292969 Z M 47.273438 497.449219 " fill-opacity="1" fill-rule="nonzero"/></g><g clip-path="url(#clip-1)"><path d="M 877.535156 630.410156 C 741 630.410156 630.410156 741 630.410156 877.535156 C 630.410156 1014.070312 741 1124.660156 877.535156 1124.660156 C 1014.070312 1124.660156 1124.660156 1014.070312 1124.660156 877.535156 C 1124.660156 741 1014.070312 630.410156 877.535156 630.410156 Z M 877.535156 1075.234375 C 768.304688 1075.234375 679.835938 986.765625 679.835938 877.535156 C 679.835938 768.304688 768.304688 679.835938 877.535156 679.835938 C 986.765625 679.835938 1075.234375 768.304688 1075.234375 877.535156 C 1075.234375 986.765625 986.765625 1075.234375 877.535156 1075.234375 Z M 877.535156 1075.234375 " fill-opacity="1" fill-rule="nonzero"/></g><path stroke-linecap="butt" transform="matrix(-53.031125, 53.031125, -53.033004, -53.033004, 1076.67262, 121.814823)" fill="none" stroke-linejoin="miter" d="M 0.0000219534 -0.00000789936 L 17.680676 -0.00000789936 " stroke-width="1" stroke-opacity="1" stroke-miterlimit="4"/></svg>